<!-- Generated by IcoMoon.io -->
<svg version="1.1" xmlns="http://www.w3.org/2000/svg" width="32" height="32" viewBox="0 0 32 32"><title>Logo</title>
<path fill="#475467" d="M31.857 15.809h-0.849c-0.004-0.052-0.023-0.097-0.055-0.135s-0.074-0.067-0.125-0.087c-0.050-0.021-0.106-0.032-0.167-0.032-0.079 0-0.147 0.014-0.204 0.043s-0.085 0.070-0.084 0.124c-0.001 0.038 0.015 0.073 0.048 0.105s0.101 0.057 0.199 0.075l0.521 0.094c0.263 0.048 0.458 0.129 0.587 0.242 0.129 0.113 0.194 0.263 0.196 0.453-0.001 0.183-0.056 0.341-0.164 0.476-0.107 0.134-0.254 0.237-0.44 0.311-0.185 0.072-0.396 0.109-0.633 0.109-0.392 0-0.699-0.080-0.921-0.241s-0.344-0.372-0.369-0.635h0.916c0.012 0.081 0.052 0.144 0.12 0.189 0.069 0.043 0.156 0.065 0.261 0.065 0.085 0 0.154-0.014 0.209-0.043 0.056-0.029 0.084-0.070 0.085-0.124-0.001-0.049-0.026-0.088-0.073-0.117s-0.12-0.052-0.221-0.070l-0.454-0.080c-0.262-0.046-0.458-0.133-0.588-0.261s-0.195-0.293-0.194-0.495c-0.001-0.178 0.046-0.329 0.14-0.453 0.096-0.125 0.232-0.219 0.409-0.284 0.178-0.066 0.389-0.099 0.633-0.099 0.371 0 0.664 0.077 0.877 0.231 0.215 0.154 0.328 0.367 0.339 0.638z"></path>
<path fill="#475467" d="M27.392 16.932l0.007-1.096h0.12l0.622-0.862h1.036l-1.043 1.344h-0.261l-0.481 0.615zM26.563 17.54v-3.422h0.923v3.422h-0.923zM28.147 17.54l-0.588-1.016 0.602-0.655 1.043 1.671h-1.056z"></path>
<path fill="#475467" d="M24.852 17.587c-0.279 0-0.517-0.055-0.715-0.165-0.198-0.111-0.35-0.266-0.456-0.465-0.106-0.199-0.159-0.431-0.159-0.694s0.053-0.494 0.159-0.692c0.106-0.199 0.258-0.354 0.456-0.465 0.198-0.111 0.437-0.167 0.715-0.167 0.252 0 0.47 0.046 0.653 0.137 0.185 0.090 0.328 0.218 0.429 0.384 0.101 0.165 0.153 0.359 0.154 0.582h-0.856c-0.012-0.135-0.051-0.237-0.117-0.307-0.065-0.071-0.148-0.107-0.251-0.107-0.080 0-0.151 0.023-0.211 0.070-0.060 0.046-0.107 0.115-0.14 0.209-0.033 0.092-0.050 0.209-0.050 0.349s0.017 0.257 0.050 0.351c0.033 0.092 0.080 0.162 0.14 0.209 0.060 0.046 0.13 0.069 0.211 0.069 0.068 0 0.128-0.016 0.18-0.047 0.052-0.032 0.095-0.079 0.127-0.14 0.034-0.062 0.054-0.138 0.060-0.227h0.856c-0.004 0.226-0.055 0.423-0.156 0.592-0.1 0.167-0.242 0.296-0.426 0.388s-0.401 0.137-0.655 0.137z"></path>
<path fill="#475467" d="M22.129 16.417v-1.444h0.922v2.567h-0.876v-0.488h-0.027c-0.056 0.164-0.153 0.292-0.292 0.384-0.139 0.091-0.305 0.137-0.496 0.137-0.179 0-0.336-0.041-0.471-0.124-0.134-0.082-0.238-0.196-0.313-0.341-0.074-0.145-0.111-0.311-0.112-0.498v-1.638h0.922v1.444c0.001 0.127 0.033 0.227 0.097 0.299 0.065 0.072 0.155 0.109 0.271 0.109 0.077 0 0.143-0.016 0.199-0.048 0.057-0.033 0.1-0.080 0.13-0.14 0.031-0.061 0.046-0.134 0.045-0.219z"></path>
<path fill="#475467" d="M18.33 17.54v-2.567h0.896v0.488h0.027c0.047-0.18 0.121-0.313 0.222-0.396 0.102-0.084 0.222-0.125 0.359-0.125 0.040 0 0.080 0.003 0.119 0.010 0.040 0.006 0.079 0.014 0.115 0.025v0.787c-0.046-0.016-0.102-0.027-0.169-0.035s-0.124-0.012-0.172-0.012c-0.090 0-0.172 0.021-0.244 0.062-0.071 0.040-0.128 0.097-0.169 0.17-0.041 0.072-0.062 0.158-0.062 0.256v1.337h-0.922z"></path>
<path fill="#475467" d="M15.165 14.866v-0.749h2.975v0.749h-1.029v2.674h-0.916v-2.674h-1.029z"></path>
<path fill="#101828" d="M14.708 14.118v3.422h-0.922v-3.422h0.922z"></path>
<path fill="#101828" d="M12.058 17.587c-0.274 0-0.51-0.052-0.709-0.157-0.197-0.106-0.349-0.257-0.456-0.455-0.106-0.198-0.159-0.436-0.159-0.712 0-0.265 0.053-0.497 0.16-0.695s0.258-0.353 0.453-0.463c0.195-0.11 0.425-0.165 0.69-0.165 0.194 0 0.369 0.030 0.526 0.090s0.291 0.148 0.403 0.262c0.111 0.114 0.197 0.252 0.257 0.414s0.090 0.346 0.090 0.55v0.214h-2.293v-0.508h1.444c-0.001-0.074-0.020-0.138-0.057-0.194-0.036-0.057-0.084-0.101-0.145-0.132-0.060-0.032-0.129-0.048-0.206-0.048-0.075 0-0.143 0.016-0.206 0.048-0.062 0.031-0.113 0.075-0.15 0.13-0.037 0.056-0.056 0.121-0.059 0.196v0.548c0 0.082 0.017 0.156 0.052 0.221s0.084 0.115 0.149 0.152c0.065 0.037 0.143 0.055 0.234 0.055 0.063 0 0.121-0.009 0.174-0.027 0.053-0.018 0.099-0.043 0.137-0.077 0.038-0.035 0.066-0.076 0.084-0.124h0.842c-0.029 0.178-0.097 0.333-0.206 0.465-0.108 0.13-0.251 0.232-0.429 0.304-0.177 0.071-0.384 0.107-0.622 0.107z"></path>
<path fill="#101828" d="M10.55 14.973l-0.862 2.567h-1.070l-0.862-2.567h0.969l0.414 1.698h0.027l0.414-1.698h0.969z"></path>
<path fill="#101828" d="M5.896 17.58c-0.164 0-0.309-0.027-0.434-0.080-0.125-0.055-0.223-0.137-0.294-0.247s-0.107-0.251-0.107-0.421c0-0.14 0.024-0.26 0.072-0.359 0.048-0.1 0.115-0.182 0.201-0.246s0.185-0.112 0.299-0.145c0.115-0.033 0.238-0.055 0.371-0.065 0.144-0.011 0.259-0.024 0.346-0.040 0.088-0.017 0.152-0.040 0.191-0.069 0.039-0.030 0.059-0.070 0.059-0.119v-0.007c0-0.067-0.026-0.118-0.077-0.154s-0.117-0.053-0.197-0.053c-0.088 0-0.16 0.020-0.216 0.059-0.055 0.038-0.087 0.096-0.099 0.175h-0.849c0.011-0.156 0.061-0.3 0.149-0.431 0.089-0.133 0.219-0.238 0.389-0.318 0.17-0.080 0.383-0.12 0.638-0.12 0.184 0 0.349 0.022 0.495 0.065 0.146 0.042 0.27 0.102 0.373 0.179 0.103 0.076 0.18 0.165 0.234 0.267 0.055 0.101 0.082 0.212 0.082 0.331v1.758h-0.862v-0.361h-0.020c-0.051 0.096-0.114 0.173-0.187 0.232-0.072 0.059-0.155 0.102-0.249 0.129-0.092 0.027-0.194 0.040-0.306 0.040zM6.196 16.999c0.070 0 0.136-0.015 0.197-0.043 0.062-0.029 0.113-0.071 0.152-0.125s0.059-0.121 0.059-0.199v-0.214c-0.025 0.010-0.051 0.020-0.079 0.028-0.027 0.009-0.056 0.017-0.087 0.025-0.030 0.008-0.062 0.015-0.097 0.022-0.033 0.007-0.069 0.013-0.105 0.018-0.071 0.011-0.13 0.030-0.175 0.055-0.045 0.024-0.078 0.055-0.1 0.092-0.021 0.036-0.032 0.076-0.032 0.12 0 0.071 0.025 0.126 0.075 0.164s0.114 0.057 0.192 0.057z"></path>
<path fill="#101828" d="M3.165 17.54v-2.567h0.896v0.488h0.027c0.047-0.18 0.121-0.313 0.222-0.396 0.103-0.084 0.222-0.125 0.359-0.125 0.040 0 0.080 0.003 0.119 0.010 0.040 0.006 0.079 0.014 0.115 0.025v0.787c-0.046-0.016-0.102-0.027-0.169-0.035s-0.124-0.012-0.172-0.012c-0.090 0-0.172 0.021-0.244 0.062-0.071 0.040-0.128 0.097-0.169 0.17-0.041 0.072-0.062 0.158-0.062 0.256v1.337h-0.922z"></path>
<path fill="#101828" d="M0 14.866v-0.749h2.975v0.749h-1.029v2.674h-0.916v-2.674h-1.029z"></path>
</svg>
